<svg xmlns="http://www.w3.org/2000/svg" viewBox="0 0 188 188"><defs><style>.cls-1{fill:#fff;}.cls-2{fill:#29baed;}</style></defs><title>logo-blue_1</title><g id="Layer_2" data-name="Layer 2"><g id="logo-invert"><circle class="cls-1" cx="94" cy="94" r="94"/><path class="cls-2" d="M158,97.43a25,25,0,0,0-17.4-7.77l-1.17,0a27,27,0,0,0-19.53,7.64,24.86,24.86,0,0,0-7.7,14.82c0,1.29-.27,2.63-.27,4s.27,2.67.27,4c.75,2.22,1,4.33,1.81,6.34a26.51,26.51,0,0,0,5.85,8.49,27,27,0,0,0,37.89,0A26.43,26.43,0,0,0,158,97.43Zm-13.81,24.14a10.45,10.45,0,0,1-3.59,2.09,12,12,0,0,1-1.68.16,7.09,7.09,0,0,1-5.26-2.25,7.88,7.88,0,0,1-.08-10.86,7.27,7.27,0,0,1,5.35-2.22,11.62,11.62,0,0,1,1.67.15,6.34,6.34,0,0,1,3.58,2.07,7.5,7.5,0,0,1,2.07,5.45A7.4,7.4,0,0,1,144.18,121.57Z"/><path class="cls-2" d="M135.36,80.79V68.93c0-7.42-2.4-13.11-6.92-17.06s-11.08-5.93-19.55-5.93a35.36,35.36,0,0,0-13.5,2.27A28.87,28.87,0,0,0,85.14,55.8q-7.8-9.86-22.31-9.86c-8.16,0-14.82,2-19.93,5.93a18.49,18.49,0,0,0-7.7,15.27v50.28H63.6V72.05c0-3.71,1.23-5.57,4-5.57,1.47,0,2.34.37,2.84,1.12s.64,2.23.64,4.45v45.37h28.4V71.69c0-3.47,1.25-5.21,4-5.21,1.48,0,2.36.36,2.84,1.1s.63,2.22.63,4.47v28.84C110.42,89.58,124.52,80.79,135.36,80.79Z"/></g><g id="logo-blue"><circle class="cls-2" cx="94" cy="94" r="94"/><path class="cls-1" d="M158,97.43a25,25,0,0,0-17.4-7.77l-1.17,0a27,27,0,0,0-19.53,7.64,24.86,24.86,0,0,0-7.7,14.82c0,1.29-.27,2.63-.27,4s.27,2.67.27,4c.75,2.22,1,4.33,1.81,6.34a26.51,26.51,0,0,0,5.85,8.49,27,27,0,0,0,37.89,0A26.43,26.43,0,0,0,158,97.43Zm-13.81,24.14a10.45,10.45,0,0,1-3.59,2.09,12,12,0,0,1-1.68.16,7.09,7.09,0,0,1-5.26-2.25,7.88,7.88,0,0,1-.08-10.86,7.27,7.27,0,0,1,5.35-2.22,11.62,11.62,0,0,1,1.67.15,6.34,6.34,0,0,1,3.58,2.07,7.5,7.5,0,0,1,2.07,5.45A7.4,7.4,0,0,1,144.18,121.57Z"/><path class="cls-1" d="M135.36,80.79V68.93c0-7.42-2.4-13.11-6.92-17.06s-11.08-5.93-19.55-5.93a35.36,35.36,0,0,0-13.5,2.27A28.87,28.87,0,0,0,85.14,55.8q-7.8-9.86-22.31-9.86c-8.16,0-14.82,2-19.93,5.93a18.49,18.49,0,0,0-7.7,15.27v50.28H63.6V72.05c0-3.71,1.23-5.57,4-5.57,1.47,0,2.34.37,2.84,1.12s.64,2.23.64,4.45v45.37h28.4V71.69c0-3.47,1.25-5.21,4-5.21,1.48,0,2.36.36,2.84,1.1s.63,2.22.63,4.47v28.84C110.42,89.58,124.52,80.79,135.36,80.79Z"/></g></g></svg>